# xmcd
#
# Track frame offsets:
#	150
#	15237
#	38491
#	54279
#	72281
#	91419
#	114782
#	140279
#	156303
#	177422
#	205715
#	233126
#	250818
#	269026
#	295900
#	313158
#
# Disc length: 4405 seconds
#
# Revision: 0
# Processed by: cddbd v1.5.2PL0 Copyright (c) Steve Scherf et al.
# Submitted via: EasyCDDAExtractor 16.0.9.1
#
DISCID=d7113310
DTITLE=Various Artist - Ibiza Techno Party Vol.2
DYEAR=2000
DGENRE=Euro-House
TTITLE0=Copeland - Verano Del Amor
TTITLE1=Funk'E'Fx - Move That Body
TTITLE2=Zombie Nation - Kernkraft 400
TTITLE3=Unix - Attenzione
TTITLE4=Doggy Style - The Fly
TTITLE5=No-Fly Zone - Goollp
TTITLE6=Club Station - Soul Destroyer
TTITLE7=Ravelab feat. Purwien - Send My An Angel
TTITLE8=Sebastian - Toccata
TTITLE9=Sector 5 - Armageddon
TTITLE10=Funkee Bass - Sax In Da House
TTITLE11=? - Something Wonderful
TTITLE12=Millenium Club - Welcome 2000
TTITLE13=Chaan - Funkiness Of You
TTITLE14=Salida Del Sol - Caribian Dreams
TTITLE15=Tory Kay - Ocean Fantasies
EXTD=
EXTT0=
EXTT1=
EXTT2=
EXTT3=
EXTT4=
EXTT5=
EXTT6=
EXTT7=
EXTT8=
EXTT9=
EXTT10=
EXTT11=
EXTT12=
EXTT13=
EXTT14=
EXTT15=
PLAYORDER=
